<svg width="985" height="241" viewBox="0 0 985 241" fill="none" xmlns="http://www.w3.org/2000/svg">
<path d="M132.15 160.6C132.15 163.973 131.857 166.907 131.27 169.4C131.857 171.747 132.15 174.68 132.15 178.2C132.15 181.573 131.857 184.507 131.27 187H113.67C113.084 184.507 112.79 181.573 112.79 178.2C112.79 174.68 113.084 171.747 113.67 169.4C113.084 166.907 112.79 163.973 112.79 160.6C112.79 157.08 113.084 154.147 113.67 151.8H78.4703C79.057 154.147 79.3503 157.08 79.3503 160.6C79.3503 163.973 79.057 166.907 78.4703 169.4C79.057 171.747 79.3503 174.68 79.3503 178.2C79.3503 181.573 79.057 184.507 78.4703 187H60.8703C60.2836 184.507 59.9903 181.573 59.9903 178.2C59.9903 174.68 60.2836 171.747 60.8703 169.4C60.2836 166.907 59.9903 163.973 59.9903 160.6C59.9903 157.08 60.2836 154.147 60.8703 151.8H67.4703C66.8836 149.307 66.5903 146.373 66.5903 143C66.5903 139.48 66.8836 136.547 67.4703 134.2C66.8836 131.707 66.5903 128.773 66.5903 125.4C66.5903 121.88 66.8836 118.947 67.4703 116.6H71.8703C71.2836 114.107 70.9903 111.173 70.9903 107.8C70.9903 104.28 71.2836 101.347 71.8703 99H78.4703C77.8836 96.5067 77.5903 93.5733 77.5903 90.2C77.5903 86.68 77.8836 83.7467 78.4703 81.4H82.8703C82.2836 78.9067 81.9903 75.9733 81.9903 72.6C81.9903 69.08 82.2836 66.1467 82.8703 63.8H109.27C109.857 66.1467 110.15 69.08 110.15 72.6C110.15 75.9733 109.857 78.9067 109.27 81.4H113.67C114.257 83.7467 114.55 86.68 114.55 90.2C114.55 93.5733 114.257 96.5067 113.67 99H120.27C120.857 101.347 121.15 104.28 121.15 107.8C121.15 111.173 120.857 114.107 120.27 116.6H124.67C125.257 118.947 125.55 121.88 125.55 125.4C125.55 128.773 125.257 131.707 124.67 134.2C125.257 136.547 125.55 139.48 125.55 143C125.55 146.373 125.257 149.307 124.67 151.8H131.27C131.857 154.147 132.15 157.08 132.15 160.6ZM107.07 134.2C106.484 131.707 106.19 128.773 106.19 125.4C106.19 121.88 106.484 118.947 107.07 116.6H102.67C102.084 114.107 101.79 111.173 101.79 107.8C101.79 104.28 102.084 101.347 102.67 99H89.4703C90.057 101.347 90.3503 104.28 90.3503 107.8C90.3503 111.173 90.057 114.107 89.4703 116.6H85.0703C85.657 118.947 85.9503 121.88 85.9503 125.4C85.9503 128.773 85.657 131.707 85.0703 134.2H107.07ZM219.356 134.2C219.943 136.547 220.236 139.48 220.236 143C220.236 146.373 219.943 149.307 219.356 151.8C219.943 154.147 220.236 157.08 220.236 160.6C220.236 163.973 219.943 166.907 219.356 169.4H210.556C211.143 171.747 211.436 174.68 211.436 178.2C211.436 181.573 211.143 184.507 210.556 187H157.756C157.17 184.507 156.876 181.573 156.876 178.2C156.876 174.68 157.17 171.747 157.756 169.4H148.956C148.37 166.907 148.076 163.973 148.076 160.6C148.076 157.08 148.37 154.147 148.956 151.8H166.556C167.143 154.147 167.436 157.08 167.436 160.6C167.436 163.973 167.143 166.907 166.556 169.4H201.756C201.17 166.907 200.876 163.973 200.876 160.6C200.876 157.08 201.17 154.147 201.756 151.8C201.17 149.307 200.876 146.373 200.876 143C200.876 139.48 201.17 136.547 201.756 134.2H157.756C157.17 131.707 156.876 128.773 156.876 125.4C156.876 121.88 157.17 118.947 157.756 116.6H148.956C148.37 114.107 148.076 111.173 148.076 107.8C148.076 104.28 148.37 101.347 148.956 99C148.37 96.5067 148.076 93.5733 148.076 90.2C148.076 86.68 148.37 83.7467 148.956 81.4H157.756C157.17 78.9067 156.876 75.9733 156.876 72.6C156.876 69.08 157.17 66.1467 157.756 63.8H210.556C211.143 66.1467 211.436 69.08 211.436 72.6C211.436 75.9733 211.143 78.9067 210.556 81.4H219.356C219.943 83.7467 220.236 86.68 220.236 90.2C220.236 93.5733 219.943 96.5067 219.356 99H201.756C201.17 96.5067 200.876 93.5733 200.876 90.2C200.876 86.68 201.17 83.7467 201.756 81.4H166.556C167.143 83.7467 167.436 86.68 167.436 90.2C167.436 93.5733 167.143 96.5067 166.556 99C167.143 101.347 167.436 104.28 167.436 107.8C167.436 111.173 167.143 114.107 166.556 116.6H210.556C211.143 118.947 211.436 121.88 211.436 125.4C211.436 128.773 211.143 131.707 210.556 134.2H219.356ZM308.322 72.6C308.322 75.9733 308.029 78.9067 307.442 81.4C308.029 83.7467 308.322 86.68 308.322 90.2C308.322 93.5733 308.029 96.5067 307.442 99H298.642C299.229 101.347 299.522 104.28 299.522 107.8C299.522 111.173 299.229 114.107 298.642 116.6H289.842C290.429 118.947 290.722 121.88 290.722 125.4C290.722 128.773 290.429 131.707 289.842 134.2H281.042C281.629 136.547 281.922 139.48 281.922 143C281.922 146.373 281.629 149.307 281.042 151.8C281.629 154.147 281.922 157.08 281.922 160.6C281.922 163.973 281.629 166.907 281.042 169.4C281.629 171.747 281.922 174.68 281.922 178.2C281.922 181.573 281.629 184.507 281.042 187H263.442C262.856 184.507 262.562 181.573 262.562 178.2C262.562 174.68 262.856 171.747 263.442 169.4C262.856 166.907 262.562 163.973 262.562 160.6C262.562 157.08 262.856 154.147 263.442 151.8C262.856 149.307 262.562 146.373 262.562 143C262.562 139.48 262.856 136.547 263.442 134.2H254.642C254.056 131.707 253.762 128.773 253.762 125.4C253.762 121.88 254.056 118.947 254.642 116.6H245.842C245.256 114.107 244.962 111.173 244.962 107.8C244.962 104.28 245.256 101.347 245.842 99H237.042C236.456 96.5067 236.162 93.5733 236.162 90.2C236.162 86.68 236.456 83.7467 237.042 81.4C236.456 78.9067 236.162 75.9733 236.162 72.6C236.162 69.08 236.456 66.1467 237.042 63.8H254.642C255.229 66.1467 255.522 69.08 255.522 72.6C255.522 75.9733 255.229 78.9067 254.642 81.4C255.229 83.7467 255.522 86.68 255.522 90.2C255.522 93.5733 255.229 96.5067 254.642 99H263.442C264.029 101.347 264.322 104.28 264.322 107.8C264.322 111.173 264.029 114.107 263.442 116.6H281.042C280.456 114.107 280.162 111.173 280.162 107.8C280.162 104.28 280.456 101.347 281.042 99H289.842C289.256 96.5067 288.962 93.5733 288.962 90.2C288.962 86.68 289.256 83.7467 289.842 81.4C289.256 78.9067 288.962 75.9733 288.962 72.6C288.962 69.08 289.256 66.1467 289.842 63.8H307.442C308.029 66.1467 308.322 69.08 308.322 72.6ZM395.528 81.4C396.115 83.7467 396.408 86.68 396.408 90.2C396.408 93.5733 396.115 96.5067 395.528 99C396.115 101.347 396.408 104.28 396.408 107.8C396.408 111.173 396.115 114.107 395.528 116.6C396.115 118.947 396.408 121.88 396.408 125.4C396.408 128.773 396.115 131.707 395.528 134.2C396.115 136.547 396.408 139.48 396.408 143C396.408 146.373 396.115 149.307 395.528 151.8C396.115 154.147 396.408 157.08 396.408 160.6C396.408 163.973 396.115 166.907 395.528 169.4C396.115 171.747 396.408 174.68 396.408 178.2C396.408 181.573 396.115 184.507 395.528 187H377.928C377.341 184.507 377.048 181.573 377.048 178.2C377.048 174.68 377.341 171.747 377.928 169.4C377.341 166.907 377.048 163.973 377.048 160.6C377.048 157.08 377.341 154.147 377.928 151.8C377.341 149.307 377.048 146.373 377.048 143C377.048 139.48 377.341 136.547 377.928 134.2C377.341 131.707 377.048 128.773 377.048 125.4C377.048 121.88 377.341 118.947 377.928 116.6C377.341 114.107 377.048 111.173 377.048 107.8C377.048 104.28 377.341 101.347 377.928 99H371.328C371.915 101.347 372.208 104.28 372.208 107.8C372.208 111.173 371.915 114.107 371.328 116.6C371.915 118.947 372.208 121.88 372.208 125.4C372.208 128.773 371.915 131.707 371.328 134.2H366.928C367.515 136.547 367.808 139.48 367.808 143C367.808 146.373 367.515 149.307 366.928 151.8C367.515 154.147 367.808 157.08 367.808 160.6C367.808 163.973 367.515 166.907 366.928 169.4H353.728C353.141 166.907 352.848 163.973 352.848 160.6C352.848 157.08 353.141 154.147 353.728 151.8C353.141 149.307 352.848 146.373 352.848 143C352.848 139.48 353.141 136.547 353.728 134.2H349.328C348.741 131.707 348.448 128.773 348.448 125.4C348.448 121.88 348.741 118.947 349.328 116.6C348.741 114.107 348.448 111.173 348.448 107.8C348.448 104.28 348.741 101.347 349.328 99H342.728C343.315 101.347 343.608 104.28 343.608 107.8C343.608 111.173 343.315 114.107 342.728 116.6C343.315 118.947 343.608 121.88 343.608 125.4C343.608 128.773 343.315 131.707 342.728 134.2C343.315 136.547 343.608 139.48 343.608 143C343.608 146.373 343.315 149.307 342.728 151.8C343.315 154.147 343.608 157.08 343.608 160.6C343.608 163.973 343.315 166.907 342.728 169.4C343.315 171.747 343.608 174.68 343.608 178.2C343.608 181.573 343.315 184.507 342.728 187H325.128C324.541 184.507 324.248 181.573 324.248 178.2C324.248 174.68 324.541 171.747 325.128 169.4C324.541 166.907 324.248 163.973 324.248 160.6C324.248 157.08 324.541 154.147 325.128 151.8C324.541 149.307 324.248 146.373 324.248 143C324.248 139.48 324.541 136.547 325.128 134.2C324.541 131.707 324.248 128.773 324.248 125.4C324.248 121.88 324.541 118.947 325.128 116.6C324.541 114.107 324.248 111.173 324.248 107.8C324.248 104.28 324.541 101.347 325.128 99C324.541 96.5067 324.248 93.5733 324.248 90.2C324.248 86.68 324.541 83.7467 325.128 81.4C324.541 78.9067 324.248 75.9733 324.248 72.6C324.248 69.08 324.541 66.1467 325.128 63.8H347.128C347.715 66.1467 348.008 69.08 348.008 72.6C348.008 75.9733 347.715 78.9067 347.128 81.4H353.728C354.315 83.7467 354.608 86.68 354.608 90.2C354.608 93.5733 354.315 96.5067 353.728 99H357.028C357.615 101.347 357.908 104.28 357.908 107.8C357.908 111.173 357.615 114.107 357.028 116.6H363.628C363.041 114.107 362.748 111.173 362.748 107.8C362.748 104.28 363.041 101.347 363.628 99H366.928C366.341 96.5067 366.048 93.5733 366.048 90.2C366.048 86.68 366.341 83.7467 366.928 81.4H373.528C372.941 78.9067 372.648 75.9733 372.648 72.6C372.648 69.08 372.941 66.1467 373.528 63.8H395.528C396.115 66.1467 396.408 69.08 396.408 72.6C396.408 75.9733 396.115 78.9067 395.528 81.4ZM483.614 81.4C484.201 83.7467 484.494 86.68 484.494 90.2C484.494 93.5733 484.201 96.5067 483.614 99C484.201 101.347 484.494 104.28 484.494 107.8C484.494 111.173 484.201 114.107 483.614 116.6C484.201 118.947 484.494 121.88 484.494 125.4C484.494 128.773 484.201 131.707 483.614 134.2C484.201 136.547 484.494 139.48 484.494 143C484.494 146.373 484.201 149.307 483.614 151.8C484.201 154.147 484.494 157.08 484.494 160.6C484.494 163.973 484.201 166.907 483.614 169.4C484.201 171.747 484.494 174.68 484.494 178.2C484.494 181.573 484.201 184.507 483.614 187H466.014C465.427 184.507 465.134 181.573 465.134 178.2C465.134 174.68 465.427 171.747 466.014 169.4C465.427 166.907 465.134 163.973 465.134 160.6C465.134 157.08 465.427 154.147 466.014 151.8C465.427 149.307 465.134 146.373 465.134 143C465.134 139.48 465.427 136.547 466.014 134.2C465.427 131.707 465.134 128.773 465.134 125.4C465.134 121.88 465.427 118.947 466.014 116.6C465.427 114.107 465.134 111.173 465.134 107.8C465.134 104.28 465.427 101.347 466.014 99H459.414C460.001 101.347 460.294 104.28 460.294 107.8C460.294 111.173 460.001 114.107 459.414 116.6C460.001 118.947 460.294 121.88 460.294 125.4C460.294 128.773 460.001 131.707 459.414 134.2H455.014C455.601 136.547 455.894 139.48 455.894 143C455.894 146.373 455.601 149.307 455.014 151.8C455.601 154.147 455.894 157.08 455.894 160.6C455.894 163.973 455.601 166.907 455.014 169.4H441.814C441.227 166.907 440.934 163.973 440.934 160.6C440.934 157.08 441.227 154.147 441.814 151.8C441.227 149.307 440.934 146.373 440.934 143C440.934 139.48 441.227 136.547 441.814 134.2H437.414C436.827 131.707 436.534 128.773 436.534 125.4C436.534 121.88 436.827 118.947 437.414 116.6C436.827 114.107 436.534 111.173 436.534 107.8C436.534 104.28 436.827 101.347 437.414 99H430.814C431.401 101.347 431.694 104.28 431.694 107.8C431.694 111.173 431.401 114.107 430.814 116.6C431.401 118.947 431.694 121.88 431.694 125.4C431.694 128.773 431.401 131.707 430.814 134.2C431.401 136.547 431.694 139.48 431.694 143C431.694 146.373 431.401 149.307 430.814 151.8C431.401 154.147 431.694 157.08 431.694 160.6C431.694 163.973 431.401 166.907 430.814 169.4C431.401 171.747 431.694 174.68 431.694 178.2C431.694 181.573 431.401 184.507 430.814 187H413.214C412.627 184.507 412.334 181.573 412.334 178.2C412.334 174.68 412.627 171.747 413.214 169.4C412.627 166.907 412.334 163.973 412.334 160.6C412.334 157.08 412.627 154.147 413.214 151.8C412.627 149.307 412.334 146.373 412.334 143C412.334 139.48 412.627 136.547 413.214 134.2C412.627 131.707 412.334 128.773 412.334 125.4C412.334 121.88 412.627 118.947 413.214 116.6C412.627 114.107 412.334 111.173 412.334 107.8C412.334 104.28 412.627 101.347 413.214 99C412.627 96.5067 412.334 93.5733 412.334 90.2C412.334 86.68 412.627 83.7467 413.214 81.4C412.627 78.9067 412.334 75.9733 412.334 72.6C412.334 69.08 412.627 66.1467 413.214 63.8H435.214C435.801 66.1467 436.094 69.08 436.094 72.6C436.094 75.9733 435.801 78.9067 435.214 81.4H441.814C442.401 83.7467 442.694 86.68 442.694 90.2C442.694 93.5733 442.401 96.5067 441.814 99H445.114C445.701 101.347 445.994 104.28 445.994 107.8C445.994 111.173 445.701 114.107 445.114 116.6H451.714C451.127 114.107 450.834 111.173 450.834 107.8C450.834 104.28 451.127 101.347 451.714 99H455.014C454.427 96.5067 454.134 93.5733 454.134 90.2C454.134 86.68 454.427 83.7467 455.014 81.4H461.614C461.027 78.9067 460.734 75.9733 460.734 72.6C460.734 69.08 461.027 66.1467 461.614 63.8H483.614C484.201 66.1467 484.494 69.08 484.494 72.6C484.494 75.9733 484.201 78.9067 483.614 81.4ZM527.7 134.2C528.287 136.547 528.58 139.48 528.58 143C528.58 146.373 528.287 149.307 527.7 151.8C528.287 154.147 528.58 157.08 528.58 160.6C528.58 163.973 528.287 166.907 527.7 169.4H562.9C563.487 171.747 563.78 174.68 563.78 178.2C563.78 181.573 563.487 184.507 562.9 187H510.1C509.513 184.507 509.22 181.573 509.22 178.2C509.22 174.68 509.513 171.747 510.1 169.4C509.513 166.907 509.22 163.973 509.22 160.6C509.22 157.08 509.513 154.147 510.1 151.8C509.513 149.307 509.22 146.373 509.22 143C509.22 139.48 509.513 136.547 510.1 134.2C509.513 131.707 509.22 128.773 509.22 125.4C509.22 121.88 509.513 118.947 510.1 116.6C509.513 114.107 509.22 111.173 509.22 107.8C509.22 104.28 509.513 101.347 510.1 99C509.513 96.5067 509.22 93.5733 509.22 90.2C509.22 86.68 509.513 83.7467 510.1 81.4C509.513 78.9067 509.22 75.9733 509.22 72.6C509.22 69.08 509.513 66.1467 510.1 63.8H562.9C563.487 66.1467 563.78 69.08 563.78 72.6C563.78 75.9733 563.487 78.9067 562.9 81.4H527.7C528.287 83.7467 528.58 86.68 528.58 90.2C528.58 93.5733 528.287 96.5067 527.7 99C528.287 101.347 528.58 104.28 528.58 107.8C528.58 111.173 528.287 114.107 527.7 116.6H562.9C563.487 118.947 563.78 121.88 563.78 125.4C563.78 128.773 563.487 131.707 562.9 134.2H527.7ZM660.666 72.6C660.666 75.9733 660.373 78.9067 659.786 81.4H633.386C633.973 83.7467 634.266 86.68 634.266 90.2C634.266 93.5733 633.973 96.5067 633.386 99C633.973 101.347 634.266 104.28 634.266 107.8C634.266 111.173 633.973 114.107 633.386 116.6C633.973 118.947 634.266 121.88 634.266 125.4C634.266 128.773 633.973 131.707 633.386 134.2C633.973 136.547 634.266 139.48 634.266 143C634.266 146.373 633.973 149.307 633.386 151.8C633.973 154.147 634.266 157.08 634.266 160.6C634.266 163.973 633.973 166.907 633.386 169.4C633.973 171.747 634.266 174.68 634.266 178.2C634.266 181.573 633.973 184.507 633.386 187H615.786C615.199 184.507 614.906 181.573 614.906 178.2C614.906 174.68 615.199 171.747 615.786 169.4C615.199 166.907 614.906 163.973 614.906 160.6C614.906 157.08 615.199 154.147 615.786 151.8C615.199 149.307 614.906 146.373 614.906 143C614.906 139.48 615.199 136.547 615.786 134.2C615.199 131.707 614.906 128.773 614.906 125.4C614.906 121.88 615.199 118.947 615.786 116.6C615.199 114.107 614.906 111.173 614.906 107.8C614.906 104.28 615.199 101.347 615.786 99C615.199 96.5067 614.906 93.5733 614.906 90.2C614.906 86.68 615.199 83.7467 615.786 81.4H589.386C588.799 78.9067 588.506 75.9733 588.506 72.6C588.506 69.08 588.799 66.1467 589.386 63.8H659.786C660.373 66.1467 660.666 69.08 660.666 72.6ZM747.872 169.4C748.459 171.747 748.752 174.68 748.752 178.2C748.752 181.573 748.459 184.507 747.872 187H730.272C729.685 184.507 729.392 181.573 729.392 178.2C729.392 174.68 729.685 171.747 730.272 169.4H723.672C723.085 166.907 722.792 163.973 722.792 160.6C722.792 157.08 723.085 154.147 723.672 151.8H717.072C716.485 149.307 716.192 146.373 716.192 143C716.192 139.48 716.485 136.547 717.072 134.2H695.072C695.659 136.547 695.952 139.48 695.952 143C695.952 146.373 695.659 149.307 695.072 151.8C695.659 154.147 695.952 157.08 695.952 160.6C695.952 163.973 695.659 166.907 695.072 169.4C695.659 171.747 695.952 174.68 695.952 178.2C695.952 181.573 695.659 184.507 695.072 187H677.472C676.885 184.507 676.592 181.573 676.592 178.2C676.592 174.68 676.885 171.747 677.472 169.4C676.885 166.907 676.592 163.973 676.592 160.6C676.592 157.08 676.885 154.147 677.472 151.8C676.885 149.307 676.592 146.373 676.592 143C676.592 139.48 676.885 136.547 677.472 134.2C676.885 131.707 676.592 128.773 676.592 125.4C676.592 121.88 676.885 118.947 677.472 116.6C676.885 114.107 676.592 111.173 676.592 107.8C676.592 104.28 676.885 101.347 677.472 99C676.885 96.5067 676.592 93.5733 676.592 90.2C676.592 86.68 676.885 83.7467 677.472 81.4C676.885 78.9067 676.592 75.9733 676.592 72.6C676.592 69.08 676.885 66.1467 677.472 63.8H739.072C739.659 66.1467 739.952 69.08 739.952 72.6C739.952 75.9733 739.659 78.9067 739.072 81.4H747.872C748.459 83.7467 748.752 86.68 748.752 90.2C748.752 93.5733 748.459 96.5067 747.872 99H743.472C744.059 101.347 744.352 104.28 744.352 107.8C744.352 111.173 744.059 114.107 743.472 116.6H730.272C730.859 118.947 731.152 121.88 731.152 125.4C731.152 128.773 730.859 131.707 730.272 134.2H734.672C735.259 136.547 735.552 139.48 735.552 143C735.552 146.373 735.259 149.307 734.672 151.8H741.272C741.859 154.147 742.152 157.08 742.152 160.6C742.152 163.973 741.859 166.907 741.272 169.4H747.872ZM725.872 116.6C725.285 114.107 724.992 111.173 724.992 107.8C724.992 104.28 725.285 101.347 725.872 99C725.285 96.5067 724.992 93.5733 724.992 90.2C724.992 86.68 725.285 83.7467 725.872 81.4H695.072C695.659 83.7467 695.952 86.68 695.952 90.2C695.952 93.5733 695.659 96.5067 695.072 99C695.659 101.347 695.952 104.28 695.952 107.8C695.952 111.173 695.659 114.107 695.072 116.6H725.872ZM822.758 169.4C823.344 171.747 823.638 174.68 823.638 178.2C823.638 181.573 823.344 184.507 822.758 187H778.758C778.171 184.507 777.878 181.573 777.878 178.2C777.878 174.68 778.171 171.747 778.758 169.4H791.958C791.371 166.907 791.078 163.973 791.078 160.6C791.078 157.08 791.371 154.147 791.958 151.8C791.371 149.307 791.078 146.373 791.078 143C791.078 139.48 791.371 136.547 791.958 134.2C791.371 131.707 791.078 128.773 791.078 125.4C791.078 121.88 791.371 118.947 791.958 116.6C791.371 114.107 791.078 111.173 791.078 107.8C791.078 104.28 791.371 101.347 791.958 99C791.371 96.5067 791.078 93.5733 791.078 90.2C791.078 86.68 791.371 83.7467 791.958 81.4H778.758C778.171 78.9067 777.878 75.9733 777.878 72.6C777.878 69.08 778.171 66.1467 778.758 63.8H822.758C823.344 66.1467 823.638 69.08 823.638 72.6C823.638 75.9733 823.344 78.9067 822.758 81.4H809.558C810.144 83.7467 810.438 86.68 810.438 90.2C810.438 93.5733 810.144 96.5067 809.558 99C810.144 101.347 810.438 104.28 810.438 107.8C810.438 111.173 810.144 114.107 809.558 116.6C810.144 118.947 810.438 121.88 810.438 125.4C810.438 128.773 810.144 131.707 809.558 134.2C810.144 136.547 810.438 139.48 810.438 143C810.438 146.373 810.144 149.307 809.558 151.8C810.144 154.147 810.438 157.08 810.438 160.6C810.438 163.973 810.144 166.907 809.558 169.4H822.758ZM924.044 151.8C924.63 154.147 924.924 157.08 924.924 160.6C924.924 163.973 924.63 166.907 924.044 169.4H915.244C915.83 171.747 916.124 174.68 916.124 178.2C916.124 181.573 915.83 184.507 915.244 187H871.244C870.657 184.507 870.364 181.573 870.364 178.2C870.364 174.68 870.657 171.747 871.244 169.4H862.444C861.857 166.907 861.564 163.973 861.564 160.6C861.564 157.08 861.857 154.147 862.444 151.8H853.644C853.057 149.307 852.764 146.373 852.764 143C852.764 139.48 853.057 136.547 853.644 134.2C853.057 131.707 852.764 128.773 852.764 125.4C852.764 121.88 853.057 118.947 853.644 116.6C853.057 114.107 852.764 111.173 852.764 107.8C852.764 104.28 853.057 101.347 853.644 99H862.444C861.857 96.5067 861.564 93.5733 861.564 90.2C861.564 86.68 861.857 83.7467 862.444 81.4H871.244C870.657 78.9067 870.364 75.9733 870.364 72.6C870.364 69.08 870.657 66.1467 871.244 63.8H915.244C915.83 66.1467 916.124 69.08 916.124 72.6C916.124 75.9733 915.83 78.9067 915.244 81.4H924.044C924.63 83.7467 924.924 86.68 924.924 90.2C924.924 93.5733 924.63 96.5067 924.044 99H906.444C905.857 96.5067 905.564 93.5733 905.564 90.2C905.564 86.68 905.857 83.7467 906.444 81.4H880.044C880.63 83.7467 880.924 86.68 880.924 90.2C880.924 93.5733 880.63 96.5067 880.044 99H871.244C871.83 101.347 872.124 104.28 872.124 107.8C872.124 111.173 871.83 114.107 871.244 116.6C871.83 118.947 872.124 121.88 872.124 125.4C872.124 128.773 871.83 131.707 871.244 134.2C871.83 136.547 872.124 139.48 872.124 143C872.124 146.373 871.83 149.307 871.244 151.8H880.044C880.63 154.147 880.924 157.08 880.924 160.6C880.924 163.973 880.63 166.907 880.044 169.4H906.444C905.857 166.907 905.564 163.973 905.564 160.6C905.564 157.08 905.857 154.147 906.444 151.8H924.044Z" fill="#FFF583"/>
</svg>
